<?xml version="1.0" encoding="iso-8859-1"?>
<!-- Generator: Adobe Illustrator 17.1.0, SVG Export Plug-In . SVG Version: 6.00 Build 0)  -->
<!DOCTYPE svg PUBLIC "-//W3C//DTD SVG 1.1//EN" "http://www.w3.org/Graphics/SVG/1.1/DTD/svg11.dtd">
<svg version="1.1" id="Capa_1" xmlns="http://www.w3.org/2000/svg" xmlns:xlink="http://www.w3.org/1999/xlink" x="0px" y="0px"
	 viewBox="0 0 511 511" style="enable-background:new 0 0 511 511;" xml:space="preserve">
<g>
	<path d="M503.5,104H439v-0.5c0-12.958-10.542-23.5-23.5-23.5S392,90.542,392,103.5v0.5h-64.5c-4.142,0-7.5,3.358-7.5,7.5
		s3.358,7.5,7.5,7.5H384v8.5c0,0.168,0.01,0.333,0.013,0.5h-48.359c-0.005,0-0.01,0-0.015,0H175.374c-0.011,0-0.022,0-0.033,0
		h-48.354c0.003-0.167,0.013-0.332,0.013-0.5V119h56.5c4.142,0,7.5-3.358,7.5-7.5s-3.358-7.5-7.5-7.5H119v-0.5
		C119,90.542,108.458,80,95.5,80S72,90.542,72,103.5v0.5H7.5c-4.142,0-7.5,3.358-7.5,7.5s3.358,7.5,7.5,7.5H64v8.5
		c0,17.369,14.131,31.5,31.5,31.5c11.737,0,21.987-6.457,27.406-16h47.188l6.997,20.991C182.476,180.146,197.536,191,214.564,191
		h81.871c17.029,0,32.088-10.854,37.473-27.009L340.906,143h47.188c5.419,9.543,15.669,16,27.406,16c17.369,0,31.5-14.131,31.5-31.5
		V119h56.5c4.142,0,7.5-3.358,7.5-7.5S507.642,104,503.5,104z M87,103.5c0-4.687,3.813-8.5,8.5-8.5s8.5,3.813,8.5,8.5v0.5H87V103.5z
		 M95.5,144c-9.098,0-16.5-7.402-16.5-16.5V119h33v8.5C112,136.598,104.598,144,95.5,144z M319.678,159.248
		c-3.34,10.02-12.68,16.752-23.243,16.752h-81.871c-10.563,0-19.903-6.732-23.243-16.752L185.906,143h139.188L319.678,159.248z
		 M407,103.5c0-4.687,3.813-8.5,8.5-8.5s8.5,3.813,8.5,8.5v0.5h-17V103.5z M432,127.5c0,9.098-7.402,16.5-16.5,16.5
		s-16.5-7.402-16.5-16.5V119h33V127.5z"/>
	<path d="M238.978,320.075l8-104c0.317-4.13-2.773-7.735-6.903-8.053c-4.134-0.314-7.735,2.773-8.053,6.903L224.555,312H199.5
		c-2.943,0-5.614,1.721-6.83,4.401c-1.216,2.68-0.752,5.823,1.185,8.038l56,64c1.424,1.627,3.482,2.561,5.645,2.561
		s4.22-0.934,5.645-2.561l56-64c1.938-2.215,2.401-5.358,1.185-8.038c-1.216-2.68-3.887-4.401-6.83-4.401h-25.055l-7.467-97.075
		c-0.318-4.13-3.921-7.227-8.053-6.903c-4.13,0.318-7.22,3.923-6.903,8.053l8,104c0.301,3.908,3.559,6.925,7.478,6.925h15.472
		L255.5,372.11L216.028,327H231.5C235.419,327,238.677,323.983,238.978,320.075z"/>
	<path d="M341.054,384.36c-13.499-3.51-31.857-6.062-53.092-7.381c-4.119-0.263-7.694,2.886-7.95,7.021
		c-0.257,4.134,2.886,7.693,7.021,7.95c37.456,2.327,56.894,8.016,63.26,11.57C341.466,408.512,309.231,416,255.5,416
		s-85.966-7.488-94.792-12.48c6.366-3.554,25.804-9.243,63.26-11.57c4.134-0.257,7.277-3.816,7.021-7.95
		c-0.256-4.135-3.821-7.289-7.95-7.021c-21.234,1.319-39.593,3.871-53.092,7.381C158.808,387.255,144,392.39,144,403.5
		c0,10.014,11.271,16.647,36.544,21.507C200.64,428.872,227.26,431,255.5,431s54.86-2.128,74.956-5.993
		C355.729,420.147,367,413.514,367,403.5C367,392.39,352.192,387.255,341.054,384.36z"/>
</g>
<g>
</g>
<g>
</g>
<g>
</g>
<g>
</g>
<g>
</g>
<g>
</g>
<g>
</g>
<g>
</g>
<g>
</g>
<g>
</g>
<g>
</g>
<g>
</g>
<g>
</g>
<g>
</g>
<g>
</g>
</svg>
