<svg
	version="1.1"
	xmlns="http://www.w3.org/2000/svg"
	xmlns:xlink="http://www.w3.org/1999/xlink"
	viewBox="0 51 511 511"
	xml:space="preserve">
	<g>
		<path d="M503.5,264H439v-0.5c0-12.958-10.542-23.5-23.5-23.5S392,250.542,392,263.5v0.5h-64.5c-4.142,0-7.5,3.358-7.5,7.5
			s3.358,7.5,7.5,7.5H384v8.5c0,0.168,0.01,0.333,0.013,0.5h-48.353c-0.011,0-0.022,0-0.033,0H175.382c-0.015,0-0.03,0-0.044,0
			h-48.35c0.003-0.167,0.013-0.332,0.013-0.5V279h56.5c4.142,0,7.5-3.358,7.5-7.5s-3.358-7.5-7.5-7.5H119v-0.5
			c0-12.958-10.542-23.5-23.5-23.5S72,250.542,72,263.5v0.5H7.5c-4.142,0-7.5,3.358-7.5,7.5s3.358,7.5,7.5,7.5H64v8.5
			c0,17.369,14.131,31.5,31.5,31.5c11.737,0,21.987-6.457,27.406-16h47.188l6.997,20.991C182.476,340.146,197.536,351,214.564,351
			h81.871c17.029,0,32.088-10.854,37.473-27.009L340.906,303h47.188c5.419,9.543,15.669,16,27.406,16c17.369,0,31.5-14.131,31.5-31.5
			V279h56.5c4.142,0,7.5-3.358,7.5-7.5S507.642,264,503.5,264z M87,263.5c0-4.687,3.813-8.5,8.5-8.5s8.5,3.813,8.5,8.5v0.5H87V263.5z
			M95.5,304c-9.098,0-16.5-7.402-16.5-16.5V279h33v8.5C112,296.598,104.598,304,95.5,304z M319.678,319.248
			c-3.34,10.02-12.68,16.752-23.243,16.752h-81.871c-10.563,0-19.903-6.732-23.243-16.752L185.906,303h139.188L319.678,319.248z
			M407,263.5c0-4.687,3.813-8.5,8.5-8.5s8.5,3.813,8.5,8.5v0.5h-17V263.5z M432,287.5c0,9.098-7.402,16.5-16.5,16.5
			s-16.5-7.402-16.5-16.5V279h33V287.5z"/>
	</g>
</svg>
